<?xml version="1.0" standalone="no"?>
<!DOCTYPE svg PUBLIC "-//W3C//DTD SVG 20010904//EN"
 "http://www.w3.org/TR/2001/REC-SVG-20010904/DTD/svg10.dtd">
<svg version="1.0" xmlns="http://www.w3.org/2000/svg"
 width="1278.000000pt" height="1280.000000pt" viewBox="0 0 1278.000000 1280.000000"
 preserveAspectRatio="xMidYMid meet">
<metadata>
Created by potrace 1.15, written by Peter Selinger 2001-2017
</metadata>
<g transform="translate(0.000000,1280.000000) scale(0.100000,-0.100000)"
fill="#000000" stroke="none">
<path d="M6165 12789 c-644 -68 -1195 -426 -1395 -907 -60 -142 -74 -220 -74
-402 0 -143 3 -176 23 -250 58 -206 154 -372 311 -533 107 -112 201 -185 331
-261 l89 -53 -406 -6 c-224 -4 -627 -7 -895 -7 -308 0 -490 -4 -494 -10 -3 -5
-92 -252 -196 -547 -198 -559 -1159 -3275 -1611 -4553 -378 -1068 -737 -2083
-1063 -3005 -697 -1970 -786 -2227 -780 -2233 10 -10 12757 -24 12767 -14 5 5
-26 108 -72 238 -45 126 -122 342 -170 479 -49 138 -161 455 -250 705 -89 250
-212 599 -275 775 -232 655 -398 1123 -558 1575 -91 256 -284 803 -431 1215
-146 413 -636 1796 -1090 3075 l-824 2325 -873 -3 -874 -4 100 60 c290 175
502 423 595 694 46 136 54 192 53 348 0 122 -5 161 -26 243 -147 558 -735 981
-1466 1056 -118 13 -328 12 -446 0z m364 -519 c306 -32 586 -170 743 -368 233
-292 205 -655 -71 -914 -86 -81 -139 -119 -250 -174 -325 -161 -758 -165
-1087 -10 -260 123 -424 305 -479 534 -25 104 -17 261 19 356 147 386 618 628
1125 576z"/>
</g>
</svg>
